<svg xmlns="http://www.w3.org/2000/svg" viewBox="0 0 463.34 133.07"><defs><style>.a{fill:orange;}.b{fill:#757763;}.c{fill:#363636;}.d{fill:#fff;}.e{fill:#8a4d76;}</style></defs><path class="a" d="M92,4v-.2c0-.07-.07-.13-.07-.2v-.2c0-.07-.06-.14-.06-.2a.27.27,0,0,0-.07-.2.24.24,0,0,0-.07-.2.31.31,0,0,0-.06-.21.31.31,0,0,0-.07-.2c0-.06-.07-.13-.07-.2l-.13-.2a.21.21,0,0,1-.07-.13l-.2-.2A.21.21,0,0,0,91,1.47h0c-.06-.06-.13-.13-.13-.2a.13.13,0,0,1-.13-.13L90.61,1l-.2-.13h0L89.67.4A4.42,4.42,0,0,0,88.33,0H85.86l-.2.13h-.21l-.2.2h-.06L45.94,32.21,6.76.87H6.7L6.5.6H6.3L6.09.4H3.28L2.41.33a4,4,0,0,0-1.07.74H1.21l-.14.2c0,.07-.07.14-.13.2h0a.21.21,0,0,0-.07.14l-.2.2a.17.17,0,0,1-.07.13l-.13.2c0,.07-.07.14-.07.2a.31.31,0,0,0-.07.2.31.31,0,0,0-.06.21A.24.24,0,0,0,.2,3a.27.27,0,0,0-.07.2c0,.06-.06.13-.06.2v.2c0,.07-.07.13-.07.2V96H0v.4c0,.06.07.13.07.2v.2h0a4.58,4.58,0,0,0,.33.87,3.6,3.6,0,0,0,.74,1.07v.14h.2l.2.2h0L43.4,132.6h.13l.13.14.34.2h.07l.26.13h3.29l.26-.13H48l.34-.2.13-.14h.13L90.41,99.12h0l.2-.2h.14v-.14a3.76,3.76,0,0,0,.73-1.07,5.41,5.41,0,0,0,.34-.87h0v-.2c0-.07.06-.14.06-.2V96h0V4ZM72.13,78.15l-22-17.54V46.28L81.1,71ZM45.94,99.05,26.52,83.51,45.94,68,65.43,83.51ZM41.79,60.61l-22,17.54-9-7.16L41.79,46.28ZM8.37,79.69l33.42,26.73v14.39L8.37,94Zm41.79,26.73L74.67,86.86h0l8.91-7.1V94.09L50.16,120.88ZM83.58,12.79V62.28L52.64,37.57ZM8.37,62.28V12.79L39.31,37.57Z"/><path class="b" d="M115.86,114.85V91.56h7.32a8.27,8.27,0,0,1,4,.9,5.85,5.85,0,0,1,2.44,2.46,7.69,7.69,0,0,1,.83,3.61,7.59,7.59,0,0,1-.83,3.6,5.83,5.83,0,0,1-2.44,2.43,8.37,8.37,0,0,1-4,.88H117v-2h6.18a6.48,6.48,0,0,0,3-.6,4,4,0,0,0,1.76-1.72,5.59,5.59,0,0,0,.58-2.64,5.76,5.76,0,0,0-.59-2.66,4.12,4.12,0,0,0-1.76-1.77,6.28,6.28,0,0,0-3-.63h-5.2v21.38Zm10-10.51,5.58,10.51h-2.39l-5.53-10.51Z"/><path class="b" d="M135.53,114.85V91.56h13.16v1.91H137.6v8.77H148v1.91H137.6v8.79h11.31v1.91Z"/><path class="b" d="M154.06,114.85h-2.17l8.25-23.29h2.22l8.24,23.29h-2.17l-7.1-20.52h-.16Zm1.57-8.93h11.24v1.91H155.63Z"/><path class="b" d="M174.49,114.85V91.56h2.07v21.38h10.8v1.91Z"/><path class="b" d="M200.79,114.85V91.56h13.15v1.91H202.86v8.77h10.38v1.91H202.86v8.79h11.3v1.91Z"/><path class="b" d="M231.6,97.39a4.32,4.32,0,0,0-1.67-3.1,6,6,0,0,0-3.74-1.15,6.57,6.57,0,0,0-2.78.56,4.57,4.57,0,0,0-1.88,1.54,3.8,3.8,0,0,0-.68,2.24,3.23,3.23,0,0,0,.39,1.61,3.68,3.68,0,0,0,1,1.19,7.75,7.75,0,0,0,1.46.85,15.07,15.07,0,0,0,1.62.59l2.4.7a17.8,17.8,0,0,1,2.17.79,8.65,8.65,0,0,1,2,1.2,5.5,5.5,0,0,1,1.45,1.76,5.2,5.2,0,0,1,.55,2.49A6.12,6.12,0,0,1,233,112a6.57,6.57,0,0,1-2.7,2.36,9.46,9.46,0,0,1-4.22.87,9.61,9.61,0,0,1-4-.79,6.62,6.62,0,0,1-2.68-2.19,6.24,6.24,0,0,1-1.09-3.24h2.12a4.15,4.15,0,0,0,.89,2.33,4.81,4.81,0,0,0,2,1.45,8.12,8.12,0,0,0,5.79-.09,5,5,0,0,0,2.08-1.64,4.12,4.12,0,0,0,.76-2.45,3.19,3.19,0,0,0-.6-2,4.64,4.64,0,0,0-1.67-1.35,14.8,14.8,0,0,0-2.47-1l-2.71-.82a9.94,9.94,0,0,1-4.14-2.26,4.94,4.94,0,0,1-1.48-3.68,5.71,5.71,0,0,1,1-3.3A6.54,6.54,0,0,1,222.48,92a8.55,8.55,0,0,1,3.77-.81A8.4,8.4,0,0,1,230,92a6.54,6.54,0,0,1,2.59,2.19,5.88,5.88,0,0,1,1,3.17Z"/><path class="b" d="M237.53,93.47V91.56H254v1.91h-7.19v21.38h-2.07V93.47Z"/><path class="b" d="M256,114.85h-2.17l8.25-23.29h2.21l8.25,23.29h-2.17l-7.11-20.52h-.15Zm1.56-8.93H268.8v1.91H257.55Z"/><path class="b" d="M272.39,93.47V91.56h16.44v1.91h-7.19v21.38h-2.07V93.47Z"/><path class="b" d="M293.47,114.85V91.56h13.15v1.91H295.54v8.77h10.39v1.91H295.54v8.79h11.31v1.91Z"/><path class="b" d="M333.05,97.39a4.29,4.29,0,0,0-1.67-3.1,6,6,0,0,0-3.73-1.15,6.58,6.58,0,0,0-2.79.56A4.57,4.57,0,0,0,323,95.24a3.87,3.87,0,0,0-.68,2.24,3.23,3.23,0,0,0,.39,1.61,3.68,3.68,0,0,0,1,1.19,7.75,7.75,0,0,0,1.46.85,14.48,14.48,0,0,0,1.63.59l2.39.7a17.8,17.8,0,0,1,2.17.79,8.65,8.65,0,0,1,2,1.2,5.37,5.37,0,0,1,1.45,1.76,5.2,5.2,0,0,1,.55,2.49,6.12,6.12,0,0,1-.94,3.36,6.57,6.57,0,0,1-2.7,2.36,9.43,9.43,0,0,1-4.22.87,9.61,9.61,0,0,1-4-.79,6.52,6.52,0,0,1-2.67-2.19,6.25,6.25,0,0,1-1.1-3.24h2.12a4.15,4.15,0,0,0,.89,2.33,4.87,4.87,0,0,0,2,1.45,8.12,8.12,0,0,0,5.79-.09,5,5,0,0,0,2.08-1.64,4.12,4.12,0,0,0,.76-2.45,3.19,3.19,0,0,0-.6-2,4.56,4.56,0,0,0-1.67-1.35,14.8,14.8,0,0,0-2.47-1l-2.71-.82a9.94,9.94,0,0,1-4.14-2.26,4.93,4.93,0,0,1-1.47-3.68,5.7,5.7,0,0,1,1-3.3A6.54,6.54,0,0,1,323.93,92a8.58,8.58,0,0,1,3.77-.81,8.4,8.4,0,0,1,3.74.8A6.54,6.54,0,0,1,334,94.22a5.8,5.8,0,0,1,1,3.17Z"/><path class="b" d="M340.35,114.85V91.56H353.5v1.91H342.42v8.77h10.39v1.91H342.42v8.79h11.31v1.91Z"/><path class="b" d="M358.85,114.85V91.56h7.32a8.2,8.2,0,0,1,4,.9,5.87,5.87,0,0,1,2.45,2.46,7.68,7.68,0,0,1,.82,3.61,7.59,7.59,0,0,1-.82,3.6,5.83,5.83,0,0,1-2.44,2.43,8.4,8.4,0,0,1-4,.88H360v-2h6.18a6.48,6.48,0,0,0,3-.6,4,4,0,0,0,1.76-1.72,6.29,6.29,0,0,0,0-5.3,4.09,4.09,0,0,0-1.77-1.77,6.22,6.22,0,0,0-3-.63h-5.19v21.38Zm10-10.51,5.57,10.51H372l-5.52-10.51Z"/><path class="b" d="M378.08,91.56l7.08,20.53h.2l7.09-20.53h2.17l-8.25,23.29h-2.21l-8.25-23.29Z"/><path class="b" d="M400.57,91.56v23.29H398.5V91.56Z"/><path class="b" d="M424.35,98.84h-2.08a6.94,6.94,0,0,0-2.35-4,6.67,6.67,0,0,0-2.06-1.18,7.19,7.19,0,0,0-2.49-.42,7.06,7.06,0,0,0-3.91,1.14,8,8,0,0,0-2.82,3.38,14.51,14.51,0,0,0,0,10.89,7.87,7.87,0,0,0,2.82,3.36,7,7,0,0,0,3.91,1.15,7.19,7.19,0,0,0,2.49-.42,6.87,6.87,0,0,0,2.06-1.18,6.77,6.77,0,0,0,1.51-1.78,6.85,6.85,0,0,0,.84-2.22h2.08a9.32,9.32,0,0,1-1,3,8.8,8.8,0,0,1-1.92,2.41,8.7,8.7,0,0,1-2.69,1.62,9.39,9.39,0,0,1-3.33.58,9,9,0,0,1-5.07-1.47,10,10,0,0,1-3.47-4.16,16.68,16.68,0,0,1,0-12.67,10,10,0,0,1,3.47-4.15,9,9,0,0,1,5.07-1.47,9.39,9.39,0,0,1,3.33.57,8.49,8.49,0,0,1,2.69,1.61,9,9,0,0,1,1.92,2.42A9.24,9.24,0,0,1,424.35,98.84Z"/><path class="b" d="M429.22,114.85V91.56h13.15v1.91H431.29v8.77h10.38v1.91H431.29v8.79h11.3v1.91Z"/><path class="b" d="M460,97.39a4.32,4.32,0,0,0-1.67-3.1,6,6,0,0,0-3.74-1.15,6.57,6.57,0,0,0-2.78.56A4.57,4.57,0,0,0,450,95.24a3.8,3.8,0,0,0-.68,2.24,3.23,3.23,0,0,0,.39,1.61,3.68,3.68,0,0,0,1,1.19,7.75,7.75,0,0,0,1.46.85,15.07,15.07,0,0,0,1.62.59l2.4.7a17.8,17.8,0,0,1,2.17.79,8.65,8.65,0,0,1,2,1.2,5.5,5.5,0,0,1,1.45,1.76,5.2,5.2,0,0,1,.55,2.49,6.12,6.12,0,0,1-.94,3.36,6.57,6.57,0,0,1-2.7,2.36,9.46,9.46,0,0,1-4.22.87,9.61,9.61,0,0,1-4-.79,6.62,6.62,0,0,1-2.68-2.19,6.24,6.24,0,0,1-1.09-3.24h2.12a4.15,4.15,0,0,0,.89,2.33,4.81,4.81,0,0,0,2,1.45,8.12,8.12,0,0,0,5.79-.09,5,5,0,0,0,2.08-1.64,4.12,4.12,0,0,0,.76-2.45,3.19,3.19,0,0,0-.6-2,4.64,4.64,0,0,0-1.67-1.35,14.8,14.8,0,0,0-2.47-1l-2.71-.82a9.94,9.94,0,0,1-4.14-2.26,4.94,4.94,0,0,1-1.48-3.68,5.71,5.71,0,0,1,1-3.3A6.54,6.54,0,0,1,450.91,92a8.55,8.55,0,0,1,3.77-.81,8.4,8.4,0,0,1,3.74.8A6.54,6.54,0,0,1,461,94.22a5.88,5.88,0,0,1,1,3.17Z"/><path class="c" d="M115.86,80.68v-62h42.33V30.84H130.85V43.56h24.64v12.2H130.85V80.68Z"/><path class="c" d="M177.86,82.05A25.49,25.49,0,0,1,165,79a21,21,0,0,1-8.28-8.62,27.24,27.24,0,0,1-2.89-12.78,27.32,27.32,0,0,1,2.89-12.82A20.94,20.94,0,0,1,165,36.15a28.24,28.24,0,0,1,25.65,0A20.94,20.94,0,0,1,199,44.76a27.32,27.32,0,0,1,2.89,12.82A27.24,27.24,0,0,1,199,70.36,21,21,0,0,1,190.68,79,25.47,25.47,0,0,1,177.86,82.05ZM178,45a6.29,6.29,0,0,0-4.32,1.51,9.61,9.61,0,0,0-2.73,4.32,20.67,20.67,0,0,0-1,6.62,20.37,20.37,0,0,0,1,6.56,9.64,9.64,0,0,0,2.73,4.33A6.29,6.29,0,0,0,178,69.88a6,6,0,0,0,4.18-1.51A9.78,9.78,0,0,0,184.81,64a20.37,20.37,0,0,0,1-6.56,20.67,20.67,0,0,0-1-6.62,9.8,9.8,0,0,0-2.68-4.32A6,6,0,0,0,178,45Z"/><path class="d" d="M177.86,33.57a24.83,24.83,0,0,1,12.57,3A20.39,20.39,0,0,1,198.52,45a26.66,26.66,0,0,1,2.83,12.57,26.61,26.61,0,0,1-2.83,12.55,20.39,20.39,0,0,1-8.09,8.42,27.77,27.77,0,0,1-25.15,0,20.39,20.39,0,0,1-8.09-8.42,26.73,26.73,0,0,1-2.83-12.55A26.78,26.78,0,0,1,157.19,45a20.39,20.39,0,0,1,8.09-8.42,24.85,24.85,0,0,1,12.58-3M178,70.38a6.57,6.57,0,0,0,4.51-1.63,10.42,10.42,0,0,0,2.83-4.54,21.16,21.16,0,0,0,1-6.73,21.35,21.35,0,0,0-1-6.78,10.42,10.42,0,0,0-2.83-4.54A6.57,6.57,0,0,0,178,44.53a6.85,6.85,0,0,0-4.65,1.63,10.22,10.22,0,0,0-2.88,4.54,21.35,21.35,0,0,0-1,6.78,21.16,21.16,0,0,0,1,6.73,10.22,10.22,0,0,0,2.88,4.54A6.85,6.85,0,0,0,178,70.38m-.09-37.81a26,26,0,0,0-13.08,3.14,21.48,21.48,0,0,0-8.47,8.82,27.77,27.77,0,0,0-2.95,13,27.71,27.71,0,0,0,2.95,13,21.42,21.42,0,0,0,8.47,8.82,28.79,28.79,0,0,0,26.15,0,21.42,21.42,0,0,0,8.47-8.82,27.71,27.71,0,0,0,2.95-13,27.77,27.77,0,0,0-2.95-13,21.48,21.48,0,0,0-8.47-8.82,25.94,25.94,0,0,0-13.07-3.14ZM178,69.38A5.84,5.84,0,0,1,174,68a9.25,9.25,0,0,1-2.58-4.11,19.94,19.94,0,0,1-.93-6.4,20.24,20.24,0,0,1,.93-6.46,9.22,9.22,0,0,1,2.58-4.1,5.84,5.84,0,0,1,4-1.39,5.54,5.54,0,0,1,3.84,1.38A9.39,9.39,0,0,1,184.34,51a20.24,20.24,0,0,1,.93,6.46,19.94,19.94,0,0,1-.93,6.4A9.37,9.37,0,0,1,181.79,68,5.54,5.54,0,0,1,178,69.38Z"/><polygon class="c" points="223.79 81.18 215.55 66.28 207.52 81.18 191.34 81.18 205.13 57.42 192.02 33.67 208.2 33.67 215.55 48.39 223.17 33.67 239.26 33.67 225.99 57.42 239.76 81.18 223.79 81.18"/><path class="d" d="M238.4,34.17h0m0,0-13,23.25,13.47,23.26H224.08l-8.53-15.45-8.33,15.45h-15l13.51-23.26L192.87,34.17h15l7.66,15.32,7.93-15.32H238.4m1.71-1H222.87l-.28.54-7,13.58-6.78-13.56-.28-.56H191.18l.81,1.49,12.57,22.75L191.34,80.17l-.87,1.51h17.35l.28-.53,7.46-13.83,7.65,13.84.28.52h17.13l-.87-1.51L226.57,57.41l12.71-22.75.83-1.49Zm-1.7,0Zm0,2h0Z"/><path class="c" d="M297.74,41.14H282.6a12.92,12.92,0,0,0-1.24-4.21,10.17,10.17,0,0,0-2.48-3.21,10.94,10.94,0,0,0-3.65-2,14.54,14.54,0,0,0-4.65-.71,13.51,13.51,0,0,0-7.76,2.21,14,14,0,0,0-5,6.39,26.31,26.31,0,0,0-1.74,10.11A26.47,26.47,0,0,0,257.85,60a13.52,13.52,0,0,0,5,6.27,13.7,13.7,0,0,0,7.64,2.1,15.31,15.31,0,0,0,4.53-.63,11.38,11.38,0,0,0,3.6-1.86,10.19,10.19,0,0,0,2.57-3,12.15,12.15,0,0,0,1.41-4l15.14.09a22.88,22.88,0,0,1-2.38,8.11,25.58,25.58,0,0,1-13.83,12.51,31,31,0,0,1-11.34,1.93,30.29,30.29,0,0,1-15.06-3.71A26.44,26.44,0,0,1,244.64,67q-3.85-7.11-3.85-17.32t3.91-17.34a26.64,26.64,0,0,1,10.56-10.81,30.3,30.3,0,0,1,14.93-3.7,33.37,33.37,0,0,1,10.41,1.56A25.79,25.79,0,0,1,289,23.92a23.38,23.38,0,0,1,5.9,7.32A26.47,26.47,0,0,1,297.74,41.14Z"/><path class="c" d="M315.11,82.05A25.51,25.51,0,0,1,302.28,79,21.09,21.09,0,0,1,294,70.36a27.36,27.36,0,0,1-2.88-12.78A27.44,27.44,0,0,1,294,44.76a21,21,0,0,1,8.28-8.61,28.26,28.26,0,0,1,25.66,0,21,21,0,0,1,8.28,8.61,27.44,27.44,0,0,1,2.88,12.82,27.36,27.36,0,0,1-2.88,12.78A21.09,21.09,0,0,1,327.94,79,25.51,25.51,0,0,1,315.11,82.05Zm.09-37a6.31,6.31,0,0,0-4.32,1.51,9.69,9.69,0,0,0-2.73,4.32,21,21,0,0,0-1,6.62,20.65,20.65,0,0,0,1,6.56,9.73,9.73,0,0,0,2.73,4.33,6.31,6.31,0,0,0,4.32,1.51,6,6,0,0,0,4.18-1.51A9.79,9.79,0,0,0,322.07,64a20.37,20.37,0,0,0,1-6.56,20.67,20.67,0,0,0-1-6.62,9.9,9.9,0,0,0-2.69-4.32A6,6,0,0,0,315.2,45Z"/><path class="d" d="M315.11,33.57a24.85,24.85,0,0,1,12.58,3A20.37,20.37,0,0,1,335.77,45a26.66,26.66,0,0,1,2.83,12.57,26.61,26.61,0,0,1-2.83,12.55,20.37,20.37,0,0,1-8.08,8.42,27.79,27.79,0,0,1-25.16,0,20.37,20.37,0,0,1-8.08-8.42,26.61,26.61,0,0,1-2.83-12.55A26.66,26.66,0,0,1,294.45,45a20.37,20.37,0,0,1,8.08-8.42,24.87,24.87,0,0,1,12.58-3m.09,36.81a6.55,6.55,0,0,0,4.51-1.63,10.33,10.33,0,0,0,2.83-4.54,20.87,20.87,0,0,0,1-6.73,21.06,21.06,0,0,0-1-6.78,10.33,10.33,0,0,0-2.83-4.54,6.55,6.55,0,0,0-4.51-1.63,6.87,6.87,0,0,0-4.65,1.63,10.12,10.12,0,0,0-2.87,4.54,21.06,21.06,0,0,0-1,6.78,20.87,20.87,0,0,0,1,6.73,10.12,10.12,0,0,0,2.87,4.54,6.87,6.87,0,0,0,4.65,1.63m-.09-37.81A26,26,0,0,0,302,35.71a21.61,21.61,0,0,0-8.47,8.82,27.88,27.88,0,0,0-2.94,13,27.83,27.83,0,0,0,2.94,13A21.55,21.55,0,0,0,302,79.41a28.81,28.81,0,0,0,26.16,0,21.55,21.55,0,0,0,8.47-8.82,27.83,27.83,0,0,0,2.94-13,27.88,27.88,0,0,0-2.94-13,21.61,21.61,0,0,0-8.47-8.82,26,26,0,0,0-13.08-3.14Zm.09,36.81a5.81,5.81,0,0,1-4-1.39,9.17,9.17,0,0,1-2.58-4.11,19.93,19.93,0,0,1-.94-6.4,20.23,20.23,0,0,1,.94-6.46,9.07,9.07,0,0,1,2.58-4.1,5.81,5.81,0,0,1,4-1.39,5.55,5.55,0,0,1,3.85,1.38A9.48,9.48,0,0,1,321.6,51a20.53,20.53,0,0,1,.93,6.46,20.22,20.22,0,0,1-.93,6.4A9.46,9.46,0,0,1,319.05,68a5.55,5.55,0,0,1-3.85,1.38Z"/><path class="c" d="M336.24,81.18V33.67h15.38V41a12.34,12.34,0,0,1,3.82-5.56,11.07,11.07,0,0,1,7-2.36,16.52,16.52,0,0,1,2.19.14,13.23,13.23,0,0,1,2.1.42l.36.11V47.65l-.66-.23a14,14,0,0,0-2.67-.55,24.29,24.29,0,0,0-3-.21,9.2,9.2,0,0,0-4.5,1.1,8.09,8.09,0,0,0-3.11,3.06A9.1,9.1,0,0,0,352,55.43V81.18Z"/><path class="d" d="M362.44,33.54a17.1,17.1,0,0,1,2.12.13,13,13,0,0,1,2,.41V47a14.23,14.23,0,0,0-2.77-.58,25.2,25.2,0,0,0-3-.21A9.57,9.57,0,0,0,356,47.33a8.42,8.42,0,0,0-3.3,3.24,9.52,9.52,0,0,0-1.2,4.86V80.68h-14.8V34.17h14.38v8.48h.49a12.69,12.69,0,0,1,4.14-6.86,10.56,10.56,0,0,1,6.69-2.25m0-1a11.39,11.39,0,0,0-10.32,6.11V33.17H335.74V81.68h16.8V55.43a8.56,8.56,0,0,1,1.07-4.36,7.53,7.53,0,0,1,2.92-2.87,8.63,8.63,0,0,1,4.25-1,23.39,23.39,0,0,1,2.92.21,14,14,0,0,1,2.57.52l1.32.46v-15l-.72-.21a15.27,15.27,0,0,0-2.18-.44,19.27,19.27,0,0,0-2.25-.14Z"/><path class="e" d="M403.81,81.55H422.1L409.49,58.41a18.07,18.07,0,0,0,7.59-6.56,20.24,20.24,0,0,0,3-11.23,21.33,21.33,0,0,0-2.88-11.32,18.86,18.86,0,0,0-8.05-7.24A27.44,27.44,0,0,0,397,19.55H370.26v62H387.1V61.09h5.82ZM387.1,33H393a14.35,14.35,0,0,1,5.07.8,6.66,6.66,0,0,1,3.24,2.49,7.56,7.56,0,0,1,1.14,4.34,7.31,7.31,0,0,1-1.14,4.27,6.42,6.42,0,0,1-3.24,2.38A15.41,15.41,0,0,1,393,48H387.1Z"/><polygon class="e" points="417.15 82.05 417.15 19.05 462.84 19.05 462.84 33.61 434.99 33.61 434.99 43.27 460.54 43.27 460.54 57.83 434.99 57.83 434.99 67.49 462.72 67.49 462.72 82.05 417.15 82.05"/><path class="d" d="M462.34,19.55V33.11H434.49V43.77H460V57.33H434.49V68h27.73V81.55H417.65v-62h44.69m1-1H416.65v64h46.57V67H435.49V58.33H461V42.77H435.49V34.11h27.85V18.55Z"/></svg>