<svg xmlns="http://www.w3.org/2000/svg" viewBox="0 0 566.34 198.7"><defs><style>.a{fill:orange;}.b{fill:#363636;}.c{fill:#8a4d76;}.d{fill:#757763;}</style></defs><path class="a" d="M137.3,5.9V5.6c0-.1-.1-.2-.1-.3V5c0-.1-.1-.2-.1-.3a.41.41,0,0,0-.1-.3.41.41,0,0,0-.1-.3.41.41,0,0,0-.1-.3.41.41,0,0,0-.1-.3c0-.1-.1-.2-.1-.3l-.2-.3a.3.3,0,0,1-.1-.2l-.3-.3a.3.3,0,0,0-.1-.2h0c-.1-.1-.2-.2-.2-.3a.2.2,0,0,1-.2-.2l-.2-.2-.3-.2h0L133.9.6a6.7,6.7,0,0,0-2-.6h-3.7l-.3.2h-.3l-.3.3h-.1L68.6,48.1,10.1,1.3H10L9.7.9H9.4L9.1.6H4.9L3.6.5A5.64,5.64,0,0,0,2,1.6H1.8l-.2.3c0,.1-.1.2-.2.3h0a.3.3,0,0,0-.1.2L1,2.7a.3.3,0,0,1-.1.2l-.2.3c0,.1-.1.2-.1.3a.41.41,0,0,0-.1.3.41.41,0,0,0-.1.3.41.41,0,0,0-.1.3.41.41,0,0,0-.1.3c0,.1-.1.2-.1.3v.3c0,.1-.1.2-.1.3V143.4H0v.6c0,.1.1.2.1.3v.3h0a6.84,6.84,0,0,0,.5,1.3,5.64,5.64,0,0,0,1.1,1.6v.2H2l.3.3h0l62.5,50H65l.2.2.5.3h.1l.4.2h4.9l.4-.2h.1l.5-.3.2-.2h.2L135,148h0l.3-.3h.2v-.2a5.64,5.64,0,0,0,1.1-1.6,6.84,6.84,0,0,0,.5-1.3h0v-.3c0-.1.1-.2.1-.3v-.6h0V5.9ZM107.7,116.7,74.9,90.5V69.1L121.1,106ZM68.6,147.9l-29-23.2,29-23.2,29.1,23.2ZM62.4,90.5,29.6,116.7,16.2,106,62.4,69.1ZM12.5,119l49.9,39.9v21.5l-49.9-40Zm62.4,39.9,36.6-29.2h0l13.3-10.6v21.4l-49.9,40ZM124.8,19.1V93L78.6,56.1ZM12.5,93V19.1l46.2,37Z"/><path class="b" d="M172.39,102.9v-64h42.39V50H185.92V65.29H212V76.45H185.92V102.9Z"/><path class="b" d="M241.81,103.84a24.37,24.37,0,0,1-12.59-3.12A21,21,0,0,1,221.05,92a27.88,27.88,0,0,1-2.88-13,28,28,0,0,1,2.88-13,21,21,0,0,1,8.17-8.69,27,27,0,0,1,25.17,0,21,21,0,0,1,8.18,8.69,28.14,28.14,0,0,1,2.87,13,28,28,0,0,1-2.87,13,21,21,0,0,1-8.18,8.69A24.36,24.36,0,0,1,241.81,103.84Zm.06-10.32a8.23,8.23,0,0,0,5.53-1.89,11.69,11.69,0,0,0,3.36-5.18,25,25,0,0,0,0-14.94,11.72,11.72,0,0,0-3.36-5.19,8.19,8.19,0,0,0-5.53-1.91,8.42,8.42,0,0,0-5.61,1.91,11.47,11.47,0,0,0-3.41,5.19,25,25,0,0,0,0,14.94,11.43,11.43,0,0,0,3.41,5.18A8.46,8.46,0,0,0,241.87,93.52Z"/><path class="b" d="M278.22,54.87,287,71.66l9-16.79h13.67l-13.92,24,14.29,24h-13.6L287,86.29l-9.32,16.61H264l14.26-24-13.76-24Z"/><path class="b" d="M372.6,61.28H358.9a13.5,13.5,0,0,0-1.53-4.73,12,12,0,0,0-3-3.55,13.1,13.1,0,0,0-4.17-2.25,16.19,16.19,0,0,0-5.11-.78,15.22,15.22,0,0,0-8.66,2.45,15.94,15.94,0,0,0-5.73,7.13,28.41,28.41,0,0,0-2,11.33,28.53,28.53,0,0,0,2.05,11.51,15.52,15.52,0,0,0,5.74,7A15.35,15.35,0,0,0,345,91.8a17,17,0,0,0,5.05-.72A13,13,0,0,0,354.22,89a12.24,12.24,0,0,0,3-3.39A13.54,13.54,0,0,0,358.9,81l13.7.06A25.09,25.09,0,0,1,370,89.56a25.88,25.88,0,0,1-5.66,7.29,26.65,26.65,0,0,1-8.44,5.06,31,31,0,0,1-11.06,1.86,30.15,30.15,0,0,1-15.3-3.87,27.4,27.4,0,0,1-10.63-11.23Q315,81.32,315,70.88t3.94-17.82a27.55,27.55,0,0,1,10.69-11.21A30.1,30.1,0,0,1,344.8,38a33.1,33.1,0,0,1,10.34,1.56,26.48,26.48,0,0,1,8.45,4.55,23.88,23.88,0,0,1,6,7.3A27.28,27.28,0,0,1,372.6,61.28Z"/><path class="b" d="M400.25,103.84a24.39,24.39,0,0,1-12.59-3.12A21,21,0,0,1,379.49,92a27.88,27.88,0,0,1-2.88-13,28,28,0,0,1,2.88-13,21,21,0,0,1,8.17-8.69,27,27,0,0,1,25.17,0A21,21,0,0,1,421,66.05a28,28,0,0,1,2.87,13A27.87,27.87,0,0,1,421,92a21,21,0,0,1-8.18,8.69A24.36,24.36,0,0,1,400.25,103.84Zm.06-10.32a8.23,8.23,0,0,0,5.53-1.89,11.79,11.79,0,0,0,3.37-5.18,25,25,0,0,0,0-14.94,11.82,11.82,0,0,0-3.37-5.19,8.19,8.19,0,0,0-5.53-1.91,8.42,8.42,0,0,0-5.61,1.91,11.55,11.55,0,0,0-3.41,5.19,25,25,0,0,0,0,14.94,11.51,11.51,0,0,0,3.41,5.18A8.46,8.46,0,0,0,400.31,93.52Z"/><path class="b" d="M427.29,102.9v-48h12.92v8.38h.5a12.49,12.49,0,0,1,4.4-6.77,11.66,11.66,0,0,1,7.13-2.29,21,21,0,0,1,2.16.12,15.55,15.55,0,0,1,2,.34V66.47a18.94,18.94,0,0,0-2.59-.5,24.56,24.56,0,0,0-3-.22A10.71,10.71,0,0,0,445.57,67a9.44,9.44,0,0,0-3.63,3.52,10,10,0,0,0-1.33,5.19V102.9Z"/><path class="c" d="M465.29,102.9v-64h25.26A27.53,27.53,0,0,1,503,41.44a18.25,18.25,0,0,1,7.85,7.29,21.83,21.83,0,0,1,2.7,11.05,20.93,20.93,0,0,1-2.75,11,17.91,17.91,0,0,1-8,7,29.4,29.4,0,0,1-12.58,2.44H473.29V69.32H488a17.1,17.1,0,0,0,6.44-1.06,7.76,7.76,0,0,0,3.83-3.19,10.23,10.23,0,0,0,1.27-5.29,10.65,10.65,0,0,0-1.27-5.38,8,8,0,0,0-3.85-3.32A15.9,15.9,0,0,0,488,49.93h-9.13v53Zm34.58-29.14,15.91,29.14H500.84L485.27,73.76Z"/><path class="c" d="M523.07,102.9v-64h43.14V50h-29.6V65.29H564V76.45H536.61V91.74h29.73V102.9Z"/><path class="d" d="M171.62,145.87V119.4h8.32a9.5,9.5,0,0,1,4.59,1,6.72,6.72,0,0,1,2.78,2.81,8.64,8.64,0,0,1,.94,4.1,8.54,8.54,0,0,1-.94,4.09,6.58,6.58,0,0,1-2.77,2.76,9.43,9.43,0,0,1-4.56,1H172.9V133h7a7.26,7.26,0,0,0,3.35-.69,4.39,4.39,0,0,0,2-2,6.27,6.27,0,0,0,.67-3,6.63,6.63,0,0,0-.67-3,4.75,4.75,0,0,0-2-2,7.21,7.21,0,0,0-3.38-.71H174v24.3ZM183,133.93l6.34,11.94h-2.71l-6.29-11.94Z"/><path class="d" d="M194,145.87V119.4h14.95v2.17h-12.6v10h11.81v2.17H196.34v10h12.85v2.17Z"/><path class="d" d="M215.06,145.87h-2.47L222,119.4h2.52l9.37,26.47H231.4l-8.08-23.33h-.18Zm1.77-10.14h12.79v2.17H216.83Z"/><path class="d" d="M238.28,145.87V119.4h2.36v24.3h12.28v2.17Z"/><path class="d" d="M268.19,145.87V119.4h14.95v2.17h-12.6v10h11.81v2.17H270.54v10h12.85v2.17Z"/><path class="d" d="M303.22,126a4.88,4.88,0,0,0-1.9-3.52,6.75,6.75,0,0,0-4.25-1.3,7.46,7.46,0,0,0-3.16.63,5.1,5.1,0,0,0-2.14,1.75,4.34,4.34,0,0,0-.78,2.54,3.66,3.66,0,0,0,.45,1.84,4.46,4.46,0,0,0,1.18,1.35,8.76,8.76,0,0,0,1.67,1,14,14,0,0,0,1.84.67l2.72.8a19.42,19.42,0,0,1,2.47.9,10.13,10.13,0,0,1,2.26,1.36,6.35,6.35,0,0,1,1.64,2,6,6,0,0,1,.63,2.84,7,7,0,0,1-1.07,3.82,7.54,7.54,0,0,1-3.07,2.68,12.09,12.09,0,0,1-9.37.09,7.37,7.37,0,0,1-3-2.49,7.11,7.11,0,0,1-1.25-3.68h2.42a4.74,4.74,0,0,0,1,2.65,5.5,5.5,0,0,0,2.29,1.64,9.05,9.05,0,0,0,6.58-.1,5.67,5.67,0,0,0,2.37-1.86,4.69,4.69,0,0,0,.86-2.79,3.67,3.67,0,0,0-.68-2.25A5.38,5.38,0,0,0,301,135a16.66,16.66,0,0,0-2.81-1.09L295.1,133a11.36,11.36,0,0,1-4.71-2.58,5.63,5.63,0,0,1-1.67-4.19,6.47,6.47,0,0,1,1.11-3.75,7.43,7.43,0,0,1,3-2.53,9.79,9.79,0,0,1,4.29-.92,9.59,9.59,0,0,1,4.25.91,7.46,7.46,0,0,1,2.94,2.49,6.59,6.59,0,0,1,1.16,3.6Z"/><path class="d" d="M310,121.57V119.4h18.69v2.17h-8.17v24.3h-2.35v-24.3Z"/><path class="d" d="M331,145.87h-2.47l9.38-26.47h2.51l9.38,26.47h-2.47l-8.08-23.33H339Zm1.77-10.14h12.79v2.17H332.73Z"/><path class="d" d="M349.6,121.57V119.4h18.69v2.17h-8.17v24.3h-2.35v-24.3Z"/><path class="d" d="M373.57,145.87V119.4h15v2.17h-12.6v10h11.8v2.17h-11.8v10h12.85v2.17Z"/><path class="d" d="M418.57,126a4.84,4.84,0,0,0-1.9-3.52,6.74,6.74,0,0,0-4.24-1.3,7.5,7.5,0,0,0-3.17.63,5.16,5.16,0,0,0-2.14,1.75,4.4,4.4,0,0,0-.77,2.54,3.76,3.76,0,0,0,.44,1.84,4.36,4.36,0,0,0,1.19,1.35,8.68,8.68,0,0,0,1.66,1,14.54,14.54,0,0,0,1.84.67l2.72.8a18.88,18.88,0,0,1,2.47.9,10.13,10.13,0,0,1,2.26,1.36,6.52,6.52,0,0,1,1.65,2,6.1,6.1,0,0,1,.62,2.84,7,7,0,0,1-1.07,3.82,7.47,7.47,0,0,1-3.07,2.68,12.07,12.07,0,0,1-9.36.09,7.4,7.4,0,0,1-3.05-2.49,7.2,7.2,0,0,1-1.25-3.68h2.42a4.67,4.67,0,0,0,1,2.65,5.44,5.44,0,0,0,2.29,1.64,9,9,0,0,0,6.57-.1,5.55,5.55,0,0,0,2.37-1.86,4.69,4.69,0,0,0,.86-2.79,3.6,3.6,0,0,0-.68-2.25,5.35,5.35,0,0,0-1.89-1.54,17.36,17.36,0,0,0-2.81-1.09l-3.09-.93a11.36,11.36,0,0,1-4.71-2.58,5.63,5.63,0,0,1-1.67-4.19,6.47,6.47,0,0,1,1.11-3.75,7.5,7.5,0,0,1,3-2.53,9.82,9.82,0,0,1,4.29-.92,9.67,9.67,0,0,1,4.26.91,7.36,7.36,0,0,1,2.93,2.49,6.6,6.6,0,0,1,1.17,3.6Z"/><path class="d" d="M426.88,145.87V119.4h14.95v2.17h-12.6v10H441v2.17H429.23v10h12.85v2.17Z"/><path class="d" d="M447.91,145.87V119.4h8.32a9.5,9.5,0,0,1,4.59,1,6.78,6.78,0,0,1,2.78,2.81,8.76,8.76,0,0,1,.94,4.1,8.66,8.66,0,0,1-.94,4.09,6.61,6.61,0,0,1-2.78,2.76,9.37,9.37,0,0,1-4.55,1h-7.09V133h7a7.31,7.31,0,0,0,3.36-.69,4.44,4.44,0,0,0,2-2,6.39,6.39,0,0,0,.66-3,6.5,6.5,0,0,0-.67-3,4.67,4.67,0,0,0-2-2,7.23,7.23,0,0,0-3.38-.71h-5.91v24.3Zm11.36-11.94,6.35,11.94H462.9l-6.28-11.94Z"/><path class="d" d="M469.77,119.4l8.06,23.33h.22l8.06-23.33h2.47l-9.38,26.47h-2.52l-9.37-26.47Z"/><path class="d" d="M495.35,119.4v26.47H493V119.4Z"/><path class="d" d="M522.38,127.67H520a8.1,8.1,0,0,0-.95-2.51,7.86,7.86,0,0,0-4.06-3.37,8.16,8.16,0,0,0-2.83-.48,8,8,0,0,0-4.45,1.31,9.07,9.07,0,0,0-3.21,3.83,16.59,16.59,0,0,0,0,12.39,9,9,0,0,0,3.21,3.82,8,8,0,0,0,4.45,1.3,8.16,8.16,0,0,0,2.83-.48,7.75,7.75,0,0,0,2.34-1.34,7.6,7.6,0,0,0,1.72-2,8.06,8.06,0,0,0,.95-2.52h2.36a10.82,10.82,0,0,1-1.17,3.39,10.3,10.3,0,0,1-2.19,2.75,9.87,9.87,0,0,1-3.06,1.84,10.49,10.49,0,0,1-3.78.66,10.15,10.15,0,0,1-5.77-1.68,11.16,11.16,0,0,1-3.94-4.72,18.84,18.84,0,0,1,0-14.4,11.19,11.19,0,0,1,3.94-4.73,10.22,10.22,0,0,1,5.77-1.67,10.49,10.49,0,0,1,3.78.65,9.69,9.69,0,0,1,3.06,1.84,10.41,10.41,0,0,1,2.19,2.74A11,11,0,0,1,522.38,127.67Z"/><path class="d" d="M527.92,145.87V119.4h15v2.17H530.28v10h11.8v2.17h-11.8v10h12.85v2.17Z"/><path class="d" d="M563,126a4.84,4.84,0,0,0-1.9-3.52,6.74,6.74,0,0,0-4.24-1.3,7.5,7.5,0,0,0-3.17.63,5.16,5.16,0,0,0-2.14,1.75,4.33,4.33,0,0,0-.77,2.54,3.66,3.66,0,0,0,.44,1.84,4.36,4.36,0,0,0,1.19,1.35,8.68,8.68,0,0,0,1.66,1,14.54,14.54,0,0,0,1.84.67l2.72.8a18.88,18.88,0,0,1,2.47.9,10.13,10.13,0,0,1,2.26,1.36,6.52,6.52,0,0,1,1.65,2,6.1,6.1,0,0,1,.62,2.84,7,7,0,0,1-1.07,3.82,7.47,7.47,0,0,1-3.07,2.68,12.09,12.09,0,0,1-9.37.09,7.43,7.43,0,0,1-3-2.49,7.11,7.11,0,0,1-1.25-3.68h2.42a4.67,4.67,0,0,0,1,2.65,5.44,5.44,0,0,0,2.29,1.64,9,9,0,0,0,6.57-.1,5.61,5.61,0,0,0,2.37-1.86,4.69,4.69,0,0,0,.86-2.79,3.67,3.67,0,0,0-.68-2.25,5.35,5.35,0,0,0-1.89-1.54,17.13,17.13,0,0,0-2.82-1.09l-3.08-.93a11.36,11.36,0,0,1-4.71-2.58,5.63,5.63,0,0,1-1.67-4.19,6.47,6.47,0,0,1,1.11-3.75,7.43,7.43,0,0,1,3-2.53,9.82,9.82,0,0,1,4.29-.92,9.59,9.59,0,0,1,4.25.91,7.33,7.33,0,0,1,2.94,2.49,6.6,6.6,0,0,1,1.17,3.6Z"/></svg>